<mxfile host="app.diagrams.net" modified="2022-07-22T07:47:58.944Z" agent="5.0 (Windows NT 10.0; Win64; x64) AppleWebKit/537.36 (KHTML, like Gecko) Chrome/103.0.0.0 Safari/537.36" etag="h-14LsOnotPA7j8WQy7v" version="20.1.1" type="github">
  <diagram id="P8HQqbGKzP0Y6NrKEVzC" name="Page-1">
    <mxGraphModel dx="782" dy="460" grid="1" gridSize="10" guides="1" tooltips="1" connect="1" arrows="1" fold="1" page="1" pageScale="1" pageWidth="850" pageHeight="1100" math="0" shadow="0">
      <root>
        <mxCell id="0" />
        <mxCell id="1" parent="0" />
        <mxCell id="fFiXqQkkyIncGSlLRh-n-35" value="" style="rounded=0;whiteSpace=wrap;html=1;" parent="1" vertex="1">
          <mxGeometry x="20" y="20" width="760" height="460" as="geometry" />
        </mxCell>
        <mxCell id="YtIWLz5QE81-4E-V98g6-17" value="" style="rounded=0;whiteSpace=wrap;html=1;fontSize=14;" vertex="1" parent="1">
          <mxGeometry x="40" y="160" width="140" height="180" as="geometry" />
        </mxCell>
        <mxCell id="YtIWLz5QE81-4E-V98g6-9" value="" style="rounded=0;whiteSpace=wrap;html=1;fontSize=14;" vertex="1" parent="1">
          <mxGeometry x="202" y="50" width="510" height="90" as="geometry" />
        </mxCell>
        <mxCell id="fFiXqQkkyIncGSlLRh-n-1" value="Data" style="shape=cylinder3;whiteSpace=wrap;html=1;boundedLbl=1;backgroundOutline=1;size=15;fillColor=#e51400;strokeColor=#B20000;fontColor=#ffffff;" parent="1" vertex="1">
          <mxGeometry x="30" y="60" width="100" height="60" as="geometry" />
        </mxCell>
        <mxCell id="fFiXqQkkyIncGSlLRh-n-6" value="" style="endArrow=classic;html=1;rounded=0;entryX=1;entryY=0.5;entryDx=0;entryDy=0;entryPerimeter=0;" parent="1" edge="1">
          <mxGeometry width="50" height="50" relative="1" as="geometry">
            <mxPoint x="596" y="225.5" as="sourcePoint" />
            <mxPoint x="566" y="195.5" as="targetPoint" />
          </mxGeometry>
        </mxCell>
        <mxCell id="fFiXqQkkyIncGSlLRh-n-7" value="" style="endArrow=classic;html=1;rounded=0;entryX=1;entryY=1;entryDx=0;entryDy=-15;entryPerimeter=0;exitX=0;exitY=0;exitDx=0;exitDy=37.5;exitPerimeter=0;" parent="1" edge="1">
          <mxGeometry width="50" height="50" relative="1" as="geometry">
            <mxPoint x="585" y="260" as="sourcePoint" />
            <mxPoint x="560" y="285" as="targetPoint" />
          </mxGeometry>
        </mxCell>
        <mxCell id="fFiXqQkkyIncGSlLRh-n-13" value="&lt;font style=&quot;font-size: 14px;&quot;&gt;Data Preprocessing&lt;/font&gt;" style="text;html=1;align=center;verticalAlign=middle;resizable=0;points=[];autosize=1;strokeColor=none;fillColor=none;" parent="1" vertex="1">
          <mxGeometry x="375" y="22" width="150" height="30" as="geometry" />
        </mxCell>
        <mxCell id="fFiXqQkkyIncGSlLRh-n-14" value="70%" style="text;html=1;align=center;verticalAlign=middle;resizable=0;points=[];autosize=1;strokeColor=none;fillColor=none;" parent="1" vertex="1">
          <mxGeometry x="570" y="190" width="50" height="30" as="geometry" />
        </mxCell>
        <mxCell id="fFiXqQkkyIncGSlLRh-n-15" value="30%" style="text;html=1;align=center;verticalAlign=middle;resizable=0;points=[];autosize=1;strokeColor=none;fillColor=none;" parent="1" vertex="1">
          <mxGeometry x="563" y="274" width="50" height="30" as="geometry" />
        </mxCell>
        <mxCell id="fFiXqQkkyIncGSlLRh-n-17" value="" style="shape=flexArrow;endArrow=classic;html=1;rounded=0;fillColor=#fff2cc;strokeColor=#d6b656;" parent="1" edge="1">
          <mxGeometry width="50" height="50" relative="1" as="geometry">
            <mxPoint x="640" y="160" as="sourcePoint" />
            <mxPoint x="640" y="216" as="targetPoint" />
            <Array as="points">
              <mxPoint x="640" y="180" />
            </Array>
          </mxGeometry>
        </mxCell>
        <mxCell id="fFiXqQkkyIncGSlLRh-n-26" value="" style="shape=flexArrow;endArrow=classic;html=1;rounded=0;fillColor=#fff2cc;strokeColor=#d6b656;" parent="1" edge="1">
          <mxGeometry width="50" height="50" relative="1" as="geometry">
            <mxPoint x="450" y="192.5" as="sourcePoint" />
            <mxPoint x="390" y="192" as="targetPoint" />
          </mxGeometry>
        </mxCell>
        <mxCell id="fFiXqQkkyIncGSlLRh-n-27" value="" style="shape=flexArrow;endArrow=classic;html=1;rounded=0;fillColor=#fff2cc;strokeColor=#d6b656;" parent="1" edge="1">
          <mxGeometry width="50" height="50" relative="1" as="geometry">
            <mxPoint x="146" y="92.5" as="sourcePoint" />
            <mxPoint x="196" y="92.5" as="targetPoint" />
          </mxGeometry>
        </mxCell>
        <mxCell id="fFiXqQkkyIncGSlLRh-n-30" value="" style="shape=flexArrow;endArrow=classic;html=1;rounded=0;fillColor=#fff2cc;strokeColor=#d6b656;" parent="1" edge="1">
          <mxGeometry width="50" height="50" relative="1" as="geometry">
            <mxPoint x="250" y="192.5" as="sourcePoint" />
            <mxPoint x="190" y="192" as="targetPoint" />
          </mxGeometry>
        </mxCell>
        <mxCell id="YtIWLz5QE81-4E-V98g6-2" value="Data Cleaning" style="shape=cube;whiteSpace=wrap;html=1;boundedLbl=1;backgroundOutline=1;darkOpacity=0.05;darkOpacity2=0.1;size=10;fillColor=#0050ef;fontColor=#ffffff;strokeColor=#001DBC;" vertex="1" parent="1">
          <mxGeometry x="210" y="65" width="110" height="55" as="geometry" />
        </mxCell>
        <mxCell id="YtIWLz5QE81-4E-V98g6-3" value="Feature Extraction" style="shape=cube;whiteSpace=wrap;html=1;boundedLbl=1;backgroundOutline=1;darkOpacity=0.05;darkOpacity2=0.1;size=10;fillColor=#0050ef;fontColor=#ffffff;strokeColor=#001DBC;" vertex="1" parent="1">
          <mxGeometry x="393" y="65" width="110" height="55" as="geometry" />
        </mxCell>
        <mxCell id="YtIWLz5QE81-4E-V98g6-4" value="Dummy Dataset" style="shape=cube;whiteSpace=wrap;html=1;boundedLbl=1;backgroundOutline=1;darkOpacity=0.05;darkOpacity2=0.1;size=10;fillColor=#0050ef;fontColor=#ffffff;strokeColor=#001DBC;" vertex="1" parent="1">
          <mxGeometry x="580" y="65" width="110" height="55" as="geometry" />
        </mxCell>
        <mxCell id="YtIWLz5QE81-4E-V98g6-5" value="" style="shape=flexArrow;endArrow=classic;html=1;rounded=0;fillColor=#fff2cc;strokeColor=#d6b656;" edge="1" parent="1">
          <mxGeometry width="50" height="50" relative="1" as="geometry">
            <mxPoint x="334" y="92" as="sourcePoint" />
            <mxPoint x="384" y="92" as="targetPoint" />
          </mxGeometry>
        </mxCell>
        <mxCell id="YtIWLz5QE81-4E-V98g6-6" value="" style="shape=flexArrow;endArrow=classic;html=1;rounded=0;fillColor=#fff2cc;strokeColor=#d6b656;" edge="1" parent="1">
          <mxGeometry width="50" height="50" relative="1" as="geometry">
            <mxPoint x="520" y="92" as="sourcePoint" />
            <mxPoint x="570" y="92" as="targetPoint" />
          </mxGeometry>
        </mxCell>
        <mxCell id="YtIWLz5QE81-4E-V98g6-10" value="Preprocessed Data" style="shape=cylinder3;whiteSpace=wrap;html=1;boundedLbl=1;backgroundOutline=1;size=15;fillColor=#e51400;strokeColor=#B20000;fontColor=#ffffff;" vertex="1" parent="1">
          <mxGeometry x="590" y="222.5" width="100" height="60" as="geometry" />
        </mxCell>
        <mxCell id="YtIWLz5QE81-4E-V98g6-11" value="Testing Data" style="shape=cylinder3;whiteSpace=wrap;html=1;boundedLbl=1;backgroundOutline=1;size=15;fillColor=#e51400;strokeColor=#B20000;fontColor=#ffffff;" vertex="1" parent="1">
          <mxGeometry x="455" y="240" width="100" height="60" as="geometry" />
        </mxCell>
        <mxCell id="YtIWLz5QE81-4E-V98g6-12" value="Training Data" style="shape=cylinder3;whiteSpace=wrap;html=1;boundedLbl=1;backgroundOutline=1;size=15;fillColor=#e51400;strokeColor=#B20000;fontColor=#ffffff;" vertex="1" parent="1">
          <mxGeometry x="456" y="162.5" width="100" height="60" as="geometry" />
        </mxCell>
        <mxCell id="YtIWLz5QE81-4E-V98g6-13" value="Classification Models" style="shape=cube;whiteSpace=wrap;html=1;boundedLbl=1;backgroundOutline=1;darkOpacity=0.05;darkOpacity2=0.1;size=10;fillColor=#e3c800;fontColor=#000000;strokeColor=#B09500;" vertex="1" parent="1">
          <mxGeometry x="270" y="164" width="110" height="51.25" as="geometry" />
        </mxCell>
        <mxCell id="YtIWLz5QE81-4E-V98g6-14" value="Hyperparameter Tuning" style="shape=cube;whiteSpace=wrap;html=1;boundedLbl=1;backgroundOutline=1;darkOpacity=0.05;darkOpacity2=0.1;size=10;fillColor=#e3c800;fontColor=#000000;strokeColor=#B09500;" vertex="1" parent="1">
          <mxGeometry x="55" y="290" width="110" height="37.5" as="geometry" />
        </mxCell>
        <mxCell id="YtIWLz5QE81-4E-V98g6-15" value="Threshold Tuning" style="shape=cube;whiteSpace=wrap;html=1;boundedLbl=1;backgroundOutline=1;darkOpacity=0.05;darkOpacity2=0.1;size=10;fillColor=#e3c800;fontColor=#000000;strokeColor=#B09500;" vertex="1" parent="1">
          <mxGeometry x="55" y="233.75" width="110" height="37.5" as="geometry" />
        </mxCell>
        <mxCell id="YtIWLz5QE81-4E-V98g6-16" value="Cross Validation" style="shape=cube;whiteSpace=wrap;html=1;boundedLbl=1;backgroundOutline=1;darkOpacity=0.05;darkOpacity2=0.1;size=10;fillColor=#e3c800;fontColor=#000000;strokeColor=#B09500;" vertex="1" parent="1">
          <mxGeometry x="53" y="175.75" width="110" height="37.5" as="geometry" />
        </mxCell>
        <mxCell id="YtIWLz5QE81-4E-V98g6-18" value="Tuning" style="text;html=1;strokeColor=none;fillColor=none;align=center;verticalAlign=middle;whiteSpace=wrap;rounded=0;fontSize=14;" vertex="1" parent="1">
          <mxGeometry x="76" y="130" width="60" height="30" as="geometry" />
        </mxCell>
        <mxCell id="YtIWLz5QE81-4E-V98g6-19" value="" style="shape=flexArrow;endArrow=classic;html=1;rounded=0;fillColor=#fff2cc;strokeColor=#d6b656;endWidth=27;endSize=7;entryX=-0.024;entryY=0.57;entryDx=0;entryDy=0;entryPerimeter=0;" edge="1" parent="1">
          <mxGeometry width="50" height="50" relative="1" as="geometry">
            <mxPoint x="95" y="350" as="sourcePoint" />
            <mxPoint x="172.36" y="411.35" as="targetPoint" />
            <Array as="points" />
          </mxGeometry>
        </mxCell>
        <mxCell id="YtIWLz5QE81-4E-V98g6-20" value="Evaluation" style="shape=cube;whiteSpace=wrap;html=1;boundedLbl=1;backgroundOutline=1;darkOpacity=0.05;darkOpacity2=0.1;size=10;fillColor=#d80073;fontColor=#ffffff;strokeColor=#A50040;" vertex="1" parent="1">
          <mxGeometry x="180" y="380" width="110" height="55" as="geometry" />
        </mxCell>
        <mxCell id="YtIWLz5QE81-4E-V98g6-21" value="" style="shape=flexArrow;endArrow=classic;html=1;rounded=0;fillColor=#fff2cc;strokeColor=#d6b656;" edge="1" parent="1">
          <mxGeometry width="50" height="50" relative="1" as="geometry">
            <mxPoint x="303" y="407" as="sourcePoint" />
            <mxPoint x="444" y="407.35969387755097" as="targetPoint" />
          </mxGeometry>
        </mxCell>
        <mxCell id="YtIWLz5QE81-4E-V98g6-22" value="Best Model" style="shape=cube;whiteSpace=wrap;html=1;boundedLbl=1;backgroundOutline=1;darkOpacity=0.05;darkOpacity2=0.1;size=10;fillColor=#008a00;fontColor=#ffffff;strokeColor=#005700;" vertex="1" parent="1">
          <mxGeometry x="451" y="380" width="110" height="55" as="geometry" />
        </mxCell>
        <mxCell id="YtIWLz5QE81-4E-V98g6-23" value="" style="shape=flexArrow;endArrow=classic;html=1;rounded=0;fillColor=#fff2cc;strokeColor=#d6b656;" edge="1" parent="1">
          <mxGeometry width="50" height="50" relative="1" as="geometry">
            <mxPoint x="505.5" y="320" as="sourcePoint" />
            <mxPoint x="505.5" y="376" as="targetPoint" />
            <Array as="points">
              <mxPoint x="505.5" y="340" />
            </Array>
          </mxGeometry>
        </mxCell>
        <mxCell id="YtIWLz5QE81-4E-V98g6-24" value="" style="shape=flexArrow;endArrow=classic;html=1;rounded=0;fillColor=#fff2cc;strokeColor=#d6b656;" edge="1" parent="1">
          <mxGeometry width="50" height="50" relative="1" as="geometry">
            <mxPoint x="580" y="407" as="sourcePoint" />
            <mxPoint x="630" y="407" as="targetPoint" />
          </mxGeometry>
        </mxCell>
        <mxCell id="YtIWLz5QE81-4E-V98g6-25" value="Output" style="shape=cube;whiteSpace=wrap;html=1;boundedLbl=1;backgroundOutline=1;darkOpacity=0.05;darkOpacity2=0.1;size=10;fillColor=#6a00ff;fontColor=#ffffff;strokeColor=#3700CC;" vertex="1" parent="1">
          <mxGeometry x="641" y="383" width="110" height="55" as="geometry" />
        </mxCell>
      </root>
    </mxGraphModel>
  </diagram>
</mxfile>
